# xmcd
#
# Track frame offsets: 
#        150
#        15704
#        30011
#        48503
#        71535
#        87662
#        118382
#        134852
#        170185
#        187487
#        205014
#
# Disc length: 2902 seconds
#
# Revision: 0
# Processed by: cddbd v1.5.2PL0 Copyright (c) Steve Scherf et al.
# Submitted via: ExactAudioCopyFreeDBPlugin 1.0
#
DISCID=aa0b540b
DTITLE=Joe Bonamassa - Blues In The Schools (Sampler)
DYEAR=1900
DGENRE=Blues
TTITLE0=Ball Peen Hammer
TTITLE1=Another Kind of Love
TTITLE2=High Water Everywhere
TTITLE3=Bridge to Better Days
TTITLE4=You Upset Me Baby
TTITLE5=Had to Cry Today
TTITLE6=Miss You, Hate You
TTITLE7=If Heartaches Were Nickels
TTITLE8=Travellin' South
TTITLE9=Waiting For Me
TTITLE10=So It's Like That
EXTD=
EXTT0=
EXTT1=
EXTT2=
EXTT3=
EXTT4=
EXTT5=
EXTT6=
EXTT7=
EXTT8=
EXTT9=
EXTT10=
PLAYORDER=
